<mxfile host="app.diagrams.net" modified="2024-04-25T16:43:32.672Z" agent="Mozilla/5.0 (Windows NT 10.0; Win64; x64; rv:125.0) Gecko/20100101 Firefox/125.0" etag="eqHYNHANVXTD3Qi_vdN5" version="24.3.0" type="github">
  <diagram id="C5RBs43oDa-KdzZeNtuy" name="Page-1">
    <mxGraphModel dx="1313" dy="663" grid="1" gridSize="10" guides="1" tooltips="1" connect="1" arrows="1" fold="1" page="1" pageScale="1" pageWidth="827" pageHeight="1169" math="0" shadow="0">
      <root>
        <object label="" id="WIyWlLk6GJQsqaUBKTNV-0">
          <mxCell />
        </object>
        <mxCell id="WIyWlLk6GJQsqaUBKTNV-1" parent="WIyWlLk6GJQsqaUBKTNV-0" />
        <mxCell id="fzTQPPO52aV2_BDG-_52-4" value="&lt;div&gt;File&lt;/div&gt;" style="swimlane;childLayout=stackLayout;horizontal=1;startSize=50;horizontalStack=0;rounded=1;fontSize=14;fontStyle=0;strokeWidth=2;resizeParent=0;resizeLast=1;shadow=0;dashed=0;align=center;arcSize=4;whiteSpace=wrap;html=1;fillColor=#6a00ff;strokeColor=#3700CC;fontColor=#ffffff;gradientColor=none;swimlaneFillColor=default;" vertex="1" parent="WIyWlLk6GJQsqaUBKTNV-1">
          <mxGeometry x="600" y="440" width="180" height="200" as="geometry" />
        </mxCell>
        <mxCell id="fzTQPPO52aV2_BDG-_52-5" value="&lt;p style=&quot;line-height: 90%;&quot;&gt;&lt;font face=&quot;Tahoma&quot; style=&quot;font-size: 14px;&quot;&gt;+uid&lt;/font&gt;&lt;/p&gt;&lt;p style=&quot;line-height: 90%;&quot;&gt;&lt;font face=&quot;Tahoma&quot; style=&quot;font-size: 14px;&quot;&gt;+name&lt;/font&gt;&lt;/p&gt;&lt;p style=&quot;line-height: 90%;&quot;&gt;&lt;font face=&quot;Tahoma&quot; style=&quot;font-size: 14px;&quot;&gt;+size&lt;/font&gt;&lt;/p&gt;&lt;p style=&quot;line-height: 90%;&quot;&gt;&lt;font face=&quot;Tahoma&quot; style=&quot;font-size: 14px;&quot;&gt;+type&lt;/font&gt;&lt;/p&gt;&lt;p style=&quot;line-height: 90%;&quot;&gt;&lt;font face=&quot;Tahoma&quot; style=&quot;font-size: 14px;&quot;&gt;+lastModifiedDate&lt;/font&gt;&lt;/p&gt;&lt;p&gt;&lt;/p&gt;" style="align=left;strokeColor=none;fillColor=none;spacingLeft=4;fontSize=12;verticalAlign=top;resizable=0;rotatable=0;part=1;html=1;" vertex="1" parent="fzTQPPO52aV2_BDG-_52-4">
          <mxGeometry y="50" width="180" height="150" as="geometry" />
        </mxCell>
        <mxCell id="fzTQPPO52aV2_BDG-_52-8" value="&lt;div&gt;&lt;div&gt;appliedConditions&lt;/div&gt;&lt;/div&gt;" style="swimlane;childLayout=stackLayout;horizontal=1;startSize=50;horizontalStack=0;rounded=1;fontSize=14;fontStyle=0;strokeWidth=2;resizeParent=0;resizeLast=1;shadow=0;dashed=0;align=center;arcSize=4;whiteSpace=wrap;html=1;fillColor=#6a00ff;strokeColor=#3700CC;fontColor=#ffffff;gradientColor=none;swimlaneFillColor=default;" vertex="1" parent="WIyWlLk6GJQsqaUBKTNV-1">
          <mxGeometry x="540" y="720" width="180" height="150" as="geometry" />
        </mxCell>
        <mxCell id="fzTQPPO52aV2_BDG-_52-9" value="&lt;p style=&quot;line-height: 90%;&quot;&gt;&lt;font face=&quot;Tahoma&quot; style=&quot;font-size: 14px;&quot;&gt;+uid&lt;/font&gt;&lt;/p&gt;&lt;p style=&quot;line-height: 90%;&quot;&gt;&lt;font face=&quot;Tahoma&quot; style=&quot;font-size: 14px;&quot;&gt;+conditionIds []&lt;/font&gt;&lt;/p&gt;&lt;p style=&quot;line-height: 90%;&quot;&gt;&lt;font face=&quot;Tahoma&quot; style=&quot;font-size: 14px;&quot;&gt;+pdfId&lt;/font&gt;&lt;/p&gt;" style="align=left;strokeColor=none;fillColor=none;spacingLeft=4;fontSize=12;verticalAlign=top;resizable=0;rotatable=0;part=1;html=1;" vertex="1" parent="fzTQPPO52aV2_BDG-_52-8">
          <mxGeometry y="50" width="180" height="100" as="geometry" />
        </mxCell>
        <mxCell id="fzTQPPO52aV2_BDG-_52-0" value="User" style="swimlane;childLayout=stackLayout;horizontal=1;startSize=50;horizontalStack=0;rounded=1;fontSize=14;fontStyle=0;strokeWidth=2;resizeParent=0;resizeLast=1;shadow=0;dashed=0;align=center;arcSize=4;whiteSpace=wrap;html=1;fillColor=#6a00ff;strokeColor=#3700CC;fontColor=#ffffff;gradientColor=none;swimlaneFillColor=default;" vertex="1" parent="WIyWlLk6GJQsqaUBKTNV-1">
          <mxGeometry x="350" y="160" width="180" height="200" as="geometry" />
        </mxCell>
        <mxCell id="fzTQPPO52aV2_BDG-_52-1" value="&lt;p style=&quot;line-height: 90%;&quot;&gt;&lt;font face=&quot;Tahoma&quot; style=&quot;font-size: 14px;&quot;&gt;+uid&lt;/font&gt;&lt;/p&gt;&lt;p style=&quot;line-height: 90%;&quot;&gt;&lt;font face=&quot;7zaYiLmwfgspBnIpPQmE&quot; style=&quot;font-size: 14px;&quot;&gt;+email&lt;/font&gt;&lt;/p&gt;&lt;p style=&quot;line-height: 90%;&quot;&gt;&lt;font face=&quot;7zaYiLmwfgspBnIpPQmE&quot; style=&quot;font-size: 14px;&quot;&gt;+providerType&lt;/font&gt;&lt;/p&gt;&lt;p style=&quot;line-height: 90%;&quot;&gt;&lt;font face=&quot;7zaYiLmwfgspBnIpPQmE&quot; style=&quot;font-size: 14px;&quot;&gt;+createdDate&lt;/font&gt;&lt;/p&gt;&lt;p style=&quot;line-height: 90%;&quot;&gt;&lt;font face=&quot;7zaYiLmwfgspBnIpPQmE&quot; style=&quot;font-size: 14px;&quot;&gt;+lastSignedInDate&lt;/font&gt;&lt;/p&gt;&lt;p&gt;&lt;/p&gt;" style="align=left;strokeColor=none;fillColor=none;spacingLeft=4;fontSize=12;verticalAlign=top;resizable=0;rotatable=0;part=1;html=1;" vertex="1" parent="fzTQPPO52aV2_BDG-_52-0">
          <mxGeometry y="50" width="180" height="150" as="geometry" />
        </mxCell>
        <mxCell id="fzTQPPO52aV2_BDG-_52-21" value="&lt;div&gt;patterns&lt;/div&gt;" style="swimlane;childLayout=stackLayout;horizontal=1;startSize=50;horizontalStack=0;rounded=1;fontSize=14;fontStyle=0;strokeWidth=2;resizeParent=0;resizeLast=1;shadow=0;dashed=0;align=center;arcSize=4;whiteSpace=wrap;html=1;fillColor=#6a00ff;strokeColor=#3700CC;fontColor=#ffffff;gradientColor=none;swimlaneFillColor=default;" vertex="1" parent="WIyWlLk6GJQsqaUBKTNV-1">
          <mxGeometry x="920" y="720" width="180" height="150" as="geometry" />
        </mxCell>
        <mxCell id="fzTQPPO52aV2_BDG-_52-22" value="&lt;p style=&quot;line-height: 90%;&quot;&gt;&lt;font face=&quot;Tahoma&quot; style=&quot;font-size: 14px;&quot;&gt;+uid&lt;/font&gt;&lt;/p&gt;&lt;p style=&quot;line-height: 90%;&quot;&gt;&lt;font face=&quot;Tahoma&quot; style=&quot;font-size: 14px;&quot;&gt;+name&lt;/font&gt;&lt;/p&gt;&lt;p style=&quot;line-height: 90%;&quot;&gt;&lt;font face=&quot;Tahoma&quot; style=&quot;font-size: 14px;&quot;&gt;+&lt;/font&gt;&lt;font face=&quot;Tahoma&quot; style=&quot;font-size: 14px;&quot;&gt;conditionIds []&lt;/font&gt;&lt;/p&gt;&lt;p&gt;&lt;/p&gt;" style="align=left;strokeColor=none;fillColor=none;spacingLeft=4;fontSize=12;verticalAlign=top;resizable=0;rotatable=0;part=1;html=1;" vertex="1" parent="fzTQPPO52aV2_BDG-_52-21">
          <mxGeometry y="50" width="180" height="100" as="geometry" />
        </mxCell>
        <mxCell id="fzTQPPO52aV2_BDG-_52-23" value="savedCondtions" style="swimlane;childLayout=stackLayout;horizontal=1;startSize=50;horizontalStack=0;rounded=1;fontSize=14;fontStyle=0;strokeWidth=2;resizeParent=0;resizeLast=1;shadow=0;dashed=0;align=center;arcSize=4;whiteSpace=wrap;html=1;fillColor=#6a00ff;strokeColor=#3700CC;fontColor=#ffffff;gradientColor=none;swimlaneFillColor=default;" vertex="1" parent="WIyWlLk6GJQsqaUBKTNV-1">
          <mxGeometry x="730" y="720" width="180" height="150" as="geometry" />
        </mxCell>
        <mxCell id="fzTQPPO52aV2_BDG-_52-24" value="&lt;p style=&quot;line-height: 90%;&quot;&gt;&lt;font face=&quot;Tahoma&quot; style=&quot;font-size: 14px;&quot;&gt;+uid&lt;/font&gt;&lt;/p&gt;&lt;p style=&quot;line-height: 90%;&quot;&gt;&lt;font face=&quot;Tahoma&quot; style=&quot;font-size: 14px;&quot;&gt;+condtions [{uid, text}]&lt;br&gt;&lt;/font&gt;&lt;/p&gt;&lt;p style=&quot;line-height: 90%;&quot;&gt;&lt;font face=&quot;Tahoma&quot; style=&quot;font-size: 14px;&quot;&gt;+pdfId&lt;/font&gt;&lt;/p&gt;&lt;p&gt;&lt;/p&gt;" style="align=left;strokeColor=none;fillColor=none;spacingLeft=4;fontSize=12;verticalAlign=top;resizable=0;rotatable=0;part=1;html=1;" vertex="1" parent="fzTQPPO52aV2_BDG-_52-23">
          <mxGeometry y="50" width="180" height="100" as="geometry" />
        </mxCell>
        <mxCell id="fzTQPPO52aV2_BDG-_52-25" value="conditions" style="swimlane;childLayout=stackLayout;horizontal=1;startSize=50;horizontalStack=0;rounded=1;fontSize=14;fontStyle=0;strokeWidth=2;resizeParent=0;resizeLast=1;shadow=0;dashed=0;align=center;arcSize=4;whiteSpace=wrap;html=1;fillColor=#6a00ff;strokeColor=#3700CC;fontColor=#ffffff;gradientColor=none;swimlaneFillColor=default;" vertex="1" parent="WIyWlLk6GJQsqaUBKTNV-1">
          <mxGeometry x="350" y="720" width="180" height="120" as="geometry" />
        </mxCell>
        <mxCell id="fzTQPPO52aV2_BDG-_52-26" value="&lt;p style=&quot;line-height: 90%;&quot;&gt;&lt;font face=&quot;Tahoma&quot; style=&quot;font-size: 14px;&quot;&gt;+uid&lt;/font&gt;&lt;/p&gt;&lt;p style=&quot;line-height: 90%;&quot;&gt;&lt;font face=&quot;Tahoma&quot; style=&quot;font-size: 14px;&quot;&gt;+text&lt;/font&gt;&lt;/p&gt;&lt;p&gt;&lt;/p&gt;" style="align=left;strokeColor=none;fillColor=none;spacingLeft=4;fontSize=12;verticalAlign=top;resizable=0;rotatable=0;part=1;html=1;" vertex="1" parent="fzTQPPO52aV2_BDG-_52-25">
          <mxGeometry y="50" width="180" height="70" as="geometry" />
        </mxCell>
        <mxCell id="fzTQPPO52aV2_BDG-_52-27" value="savedPatterns" style="swimlane;childLayout=stackLayout;horizontal=1;startSize=50;horizontalStack=0;rounded=1;fontSize=14;fontStyle=0;strokeWidth=2;resizeParent=0;resizeLast=1;shadow=0;dashed=0;align=center;arcSize=4;whiteSpace=wrap;html=1;fillColor=#6a00ff;strokeColor=#3700CC;fontColor=#ffffff;gradientColor=none;swimlaneFillColor=default;" vertex="1" parent="WIyWlLk6GJQsqaUBKTNV-1">
          <mxGeometry x="1110" y="720" width="180" height="170" as="geometry" />
        </mxCell>
        <mxCell id="fzTQPPO52aV2_BDG-_52-28" value="&lt;p style=&quot;line-height: 90%;&quot;&gt;&lt;font face=&quot;Tahoma&quot; style=&quot;font-size: 14px;&quot;&gt;+uid&lt;/font&gt;&lt;/p&gt;&lt;p style=&quot;line-height: 90%;&quot;&gt;&lt;font face=&quot;Tahoma&quot; style=&quot;font-size: 14px;&quot;&gt;+conditionIds []&lt;br&gt;&lt;/font&gt;&lt;/p&gt;&lt;p style=&quot;line-height: 90%;&quot;&gt;&lt;font face=&quot;Tahoma&quot; style=&quot;font-size: 14px;&quot;&gt;+name&lt;/font&gt;&lt;/p&gt;&lt;p style=&quot;line-height: 90%;&quot;&gt;&lt;font face=&quot;Tahoma&quot; style=&quot;font-size: 14px;&quot;&gt;+pdfId&lt;/font&gt;&lt;/p&gt;&lt;p&gt;&lt;/p&gt;" style="align=left;strokeColor=none;fillColor=none;spacingLeft=4;fontSize=12;verticalAlign=top;resizable=0;rotatable=0;part=1;html=1;" vertex="1" parent="fzTQPPO52aV2_BDG-_52-27">
          <mxGeometry y="50" width="180" height="120" as="geometry" />
        </mxCell>
        <mxCell id="fzTQPPO52aV2_BDG-_52-31" value="&lt;h1 style=&quot;margin-top: 0px;&quot;&gt;Authentication&lt;/h1&gt;&lt;p style=&quot;font-size: 15px;&quot;&gt;&lt;font face=&quot;Tahoma&quot;&gt;Vlastní funkčnost Firebase &lt;/font&gt;&lt;br&gt;&lt;/p&gt;" style="text;html=1;whiteSpace=wrap;overflow=hidden;rounded=0;" vertex="1" parent="WIyWlLk6GJQsqaUBKTNV-1">
          <mxGeometry x="120" y="160" width="280" height="120" as="geometry" />
        </mxCell>
        <mxCell id="fzTQPPO52aV2_BDG-_52-30" value="&lt;h1 style=&quot;margin-top: 0px;&quot;&gt;Storage&lt;/h1&gt;&lt;p style=&quot;font-size: 15px;&quot;&gt;&lt;font style=&quot;font-size: 15px;&quot; face=&quot;Tahoma&quot;&gt;Základní cesta:&lt;i&gt; gs://juggle-f080c.appspot.com&lt;/i&gt;&lt;/font&gt;/&lt;i&gt;pdfs/&lt;/i&gt;&lt;/p&gt;&lt;div&gt;&lt;font style=&quot;font-size: 15px;&quot; face=&quot;Tahoma&quot;&gt;Uživatelský adresář: &lt;/font&gt;&lt;code&gt;&lt;font style=&quot;font-size: 15px;&quot; face=&quot;Tahoma&quot;&gt;&lt;i&gt;gs://juggle-f080c.appspot.com/pdfs/{userUID}/&lt;/i&gt;&lt;/font&gt;&lt;/code&gt;&lt;/div&gt;" style="text;html=1;whiteSpace=wrap;overflow=hidden;rounded=0;" vertex="1" parent="WIyWlLk6GJQsqaUBKTNV-1">
          <mxGeometry x="120" y="440" width="480" height="120" as="geometry" />
        </mxCell>
        <mxCell id="fzTQPPO52aV2_BDG-_52-33" value="&lt;h1 style=&quot;margin-top: 0px;&quot;&gt;Firestore Databse&lt;br&gt;&lt;/h1&gt;&lt;p style=&quot;font-size: 15px;&quot;&gt;&lt;br&gt;&lt;/p&gt;" style="text;html=1;whiteSpace=wrap;overflow=hidden;rounded=0;" vertex="1" parent="WIyWlLk6GJQsqaUBKTNV-1">
          <mxGeometry x="120" y="720" width="220" height="55.5" as="geometry" />
        </mxCell>
      </root>
    </mxGraphModel>
  </diagram>
</mxfile>
